<?xml version="1.0" encoding="UTF-8" standalone="no"?>
<!DOCTYPE svg PUBLIC "-//W3C//DTD SVG 1.1//EN"
 "http://www.w3.org/Graphics/SVG/1.1/DTD/svg11.dtd">
<!-- Generated by graphviz version 2.26.3 (20100126.1600)
 -->
<!-- Title: G Pages: 1 -->
<svg width="978pt" height="2032pt"
 viewBox="0.00 0.00 978.00 2032.18" xmlns="http://www.w3.org/2000/svg" xmlns:xlink="http://www.w3.org/1999/xlink">
<g id="graph1" class="graph" transform="scale(1 1) rotate(0) translate(4 2028.18)">
<title>G</title>
<polygon fill="white" stroke="white" points="-4,5 -4,-2028.18 975,-2028.18 975,5 -4,5"/>
<g id="graph2" class="cluster"><title>cluster_Global</title>
<polyline fill="none" stroke="gray" points="235,-534.184 950,-534.184 "/>
<path fill="none" stroke="gray" d="M950,-534.184C956,-534.184 962,-540.184 962,-546.184"/>
<polyline fill="none" stroke="gray" points="962,-546.184 962,-2004.18 "/>
<path fill="none" stroke="gray" d="M962,-2004.18C962,-2010.18 956,-2016.18 950,-2016.18"/>
<polyline fill="none" stroke="gray" points="950,-2016.18 235,-2016.18 "/>
<path fill="none" stroke="gray" d="M235,-2016.18C229,-2016.18 223,-2010.18 223,-2004.18"/>
<polyline fill="none" stroke="gray" points="223,-2004.18 223,-546.184 "/>
<path fill="none" stroke="gray" d="M223,-546.184C223,-540.184 229,-534.184 235,-534.184"/>
<text text-anchor="middle" x="592.5" y="-2002.28" font-family="Times Roman,serif" font-size="11.00" fill="gray">Global</text>
</g>
<g id="graph3" class="cluster"><title>cluster_\VoteCerto</title>
<polyline fill="none" stroke="gray" points="243,-542.184 942,-542.184 "/>
<path fill="none" stroke="gray" d="M942,-542.184C948,-542.184 954,-548.184 954,-554.184"/>
<polyline fill="none" stroke="gray" points="954,-554.184 954,-1974.18 "/>
<path fill="none" stroke="gray" d="M954,-1974.18C954,-1980.18 948,-1986.18 942,-1986.18"/>
<polyline fill="none" stroke="gray" points="942,-1986.18 243,-1986.18 "/>
<path fill="none" stroke="gray" d="M243,-1986.18C237,-1986.18 231,-1980.18 231,-1974.18"/>
<polyline fill="none" stroke="gray" points="231,-1974.18 231,-554.184 "/>
<path fill="none" stroke="gray" d="M231,-554.184C231,-548.184 237,-542.184 243,-542.184"/>
<text text-anchor="middle" x="592.5" y="-1972.28" font-family="Times Roman,serif" font-size="11.00" fill="gray">VoteCerto</text>
</g>
<g id="graph4" class="cluster"><title>cluster_\VoteCerto\WebBundle</title>
<polyline fill="none" stroke="gray" points="251,-550.184 934,-550.184 "/>
<path fill="none" stroke="gray" d="M934,-550.184C940,-550.184 946,-556.184 946,-562.184"/>
<polyline fill="none" stroke="gray" points="946,-562.184 946,-1944.18 "/>
<path fill="none" stroke="gray" d="M946,-1944.18C946,-1950.18 940,-1956.18 934,-1956.18"/>
<polyline fill="none" stroke="gray" points="934,-1956.18 251,-1956.18 "/>
<path fill="none" stroke="gray" d="M251,-1956.18C245,-1956.18 239,-1950.18 239,-1944.18"/>
<polyline fill="none" stroke="gray" points="239,-1944.18 239,-562.184 "/>
<path fill="none" stroke="gray" d="M239,-562.184C239,-556.184 245,-550.184 251,-550.184"/>
<text text-anchor="middle" x="592.5" y="-1942.28" font-family="Times Roman,serif" font-size="11.00" fill="gray">WebBundle</text>
</g>
<g id="graph5" class="cluster"><title>cluster_\VoteCerto\WebBundle\Command</title>
<polyline fill="none" stroke="gray" points="736,-1632.18 926,-1632.18 "/>
<path fill="none" stroke="gray" d="M926,-1632.18C932,-1632.18 938,-1638.18 938,-1644.18"/>
<polyline fill="none" stroke="gray" points="938,-1644.18 938,-1694.18 "/>
<path fill="none" stroke="gray" d="M938,-1694.18C938,-1700.18 932,-1706.18 926,-1706.18"/>
<polyline fill="none" stroke="gray" points="926,-1706.18 736,-1706.18 "/>
<path fill="none" stroke="gray" d="M736,-1706.18C730,-1706.18 724,-1700.18 724,-1694.18"/>
<polyline fill="none" stroke="gray" points="724,-1694.18 724,-1644.18 "/>
<path fill="none" stroke="gray" d="M724,-1644.18C724,-1638.18 730,-1632.18 736,-1632.18"/>
<text text-anchor="middle" x="831" y="-1692.28" font-family="Times Roman,serif" font-size="11.00" fill="gray">Command</text>
</g>
<g id="graph6" class="cluster"><title>cluster_\VoteCerto\WebBundle\Controller</title>
<polyline fill="none" stroke="gray" points="778,-1442.18 884,-1442.18 "/>
<path fill="none" stroke="gray" d="M884,-1442.18C890,-1442.18 896,-1448.18 896,-1454.18"/>
<polyline fill="none" stroke="gray" points="896,-1454.18 896,-1612.18 "/>
<path fill="none" stroke="gray" d="M896,-1612.18C896,-1618.18 890,-1624.18 884,-1624.18"/>
<polyline fill="none" stroke="gray" points="884,-1624.18 778,-1624.18 "/>
<path fill="none" stroke="gray" d="M778,-1624.18C772,-1624.18 766,-1618.18 766,-1612.18"/>
<polyline fill="none" stroke="gray" points="766,-1612.18 766,-1454.18 "/>
<path fill="none" stroke="gray" d="M766,-1454.18C766,-1448.18 772,-1442.18 778,-1442.18"/>
<text text-anchor="middle" x="831" y="-1610.28" font-family="Times Roman,serif" font-size="11.00" fill="gray">Controller</text>
</g>
<g id="graph7" class="cluster"><title>cluster_\VoteCerto\WebBundle\DependencyInjection</title>
<polyline fill="none" stroke="gray" points="779,-1306.18 883,-1306.18 "/>
<path fill="none" stroke="gray" d="M883,-1306.18C889,-1306.18 895,-1312.18 895,-1318.18"/>
<polyline fill="none" stroke="gray" points="895,-1318.18 895,-1422.18 "/>
<path fill="none" stroke="gray" d="M895,-1422.18C895,-1428.18 889,-1434.18 883,-1434.18"/>
<polyline fill="none" stroke="gray" points="883,-1434.18 779,-1434.18 "/>
<path fill="none" stroke="gray" d="M779,-1434.18C773,-1434.18 767,-1428.18 767,-1422.18"/>
<polyline fill="none" stroke="gray" points="767,-1422.18 767,-1318.18 "/>
<path fill="none" stroke="gray" d="M767,-1318.18C767,-1312.18 773,-1306.18 779,-1306.18"/>
<text text-anchor="middle" x="831" y="-1420.28" font-family="Times Roman,serif" font-size="11.00" fill="gray">DependencyInjection</text>
</g>
<g id="graph8" class="cluster"><title>cluster_\VoteCerto\WebBundle\Document</title>
<polyline fill="none" stroke="gray" points="784,-1116.18 878,-1116.18 "/>
<path fill="none" stroke="gray" d="M878,-1116.18C884,-1116.18 890,-1122.18 890,-1128.18"/>
<polyline fill="none" stroke="gray" points="890,-1128.18 890,-1286.18 "/>
<path fill="none" stroke="gray" d="M890,-1286.18C890,-1292.18 884,-1298.18 878,-1298.18"/>
<polyline fill="none" stroke="gray" points="878,-1298.18 784,-1298.18 "/>
<path fill="none" stroke="gray" d="M784,-1298.18C778,-1298.18 772,-1292.18 772,-1286.18"/>
<polyline fill="none" stroke="gray" points="772,-1286.18 772,-1128.18 "/>
<path fill="none" stroke="gray" d="M772,-1128.18C772,-1122.18 778,-1116.18 784,-1116.18"/>
<text text-anchor="middle" x="831" y="-1284.28" font-family="Times Roman,serif" font-size="11.00" fill="gray">Document</text>
</g>
<g id="graph9" class="cluster"><title>cluster_\VoteCerto\WebBundle\Extension</title>
<polyline fill="none" stroke="gray" points="807,-1034.18 854,-1034.18 "/>
<path fill="none" stroke="gray" d="M854,-1034.18C860,-1034.18 866,-1040.18 866,-1046.18"/>
<polyline fill="none" stroke="gray" points="866,-1046.18 866,-1096.18 "/>
<path fill="none" stroke="gray" d="M866,-1096.18C866,-1102.18 860,-1108.18 854,-1108.18"/>
<polyline fill="none" stroke="gray" points="854,-1108.18 807,-1108.18 "/>
<path fill="none" stroke="gray" d="M807,-1108.18C801,-1108.18 795,-1102.18 795,-1096.18"/>
<polyline fill="none" stroke="gray" points="795,-1096.18 795,-1046.18 "/>
<path fill="none" stroke="gray" d="M795,-1046.18C795,-1040.18 801,-1034.18 807,-1034.18"/>
<text text-anchor="middle" x="830.5" y="-1094.28" font-family="Times Roman,serif" font-size="11.00" fill="gray">Extension</text>
</g>
<g id="graph10" class="cluster"><title>cluster_\VoteCerto\WebBundle\Organizations</title>
<polyline fill="none" stroke="gray" points="259,-1714.18 900,-1714.18 "/>
<path fill="none" stroke="gray" d="M900,-1714.18C906,-1714.18 912,-1720.18 912,-1726.18"/>
<polyline fill="none" stroke="gray" points="912,-1726.18 912,-1914.18 "/>
<path fill="none" stroke="gray" d="M912,-1914.18C912,-1920.18 906,-1926.18 900,-1926.18"/>
<polyline fill="none" stroke="gray" points="900,-1926.18 259,-1926.18 "/>
<path fill="none" stroke="gray" d="M259,-1926.18C253,-1926.18 247,-1920.18 247,-1914.18"/>
<polyline fill="none" stroke="gray" points="247,-1914.18 247,-1726.18 "/>
<path fill="none" stroke="gray" d="M247,-1726.18C247,-1720.18 253,-1714.18 259,-1714.18"/>
<text text-anchor="middle" x="579.5" y="-1912.28" font-family="Times Roman,serif" font-size="11.00" fill="gray">Organizations</text>
</g>
<g id="graph11" class="cluster"><title>cluster_\VoteCerto\WebBundle\Organizations\Adapter</title>
<polyline fill="none" stroke="gray" points="770,-1822.18 892,-1822.18 "/>
<path fill="none" stroke="gray" d="M892,-1822.18C898,-1822.18 904,-1828.18 904,-1834.18"/>
<polyline fill="none" stroke="gray" points="904,-1834.18 904,-1884.18 "/>
<path fill="none" stroke="gray" d="M904,-1884.18C904,-1890.18 898,-1896.18 892,-1896.18"/>
<polyline fill="none" stroke="gray" points="892,-1896.18 770,-1896.18 "/>
<path fill="none" stroke="gray" d="M770,-1896.18C764,-1896.18 758,-1890.18 758,-1884.18"/>
<polyline fill="none" stroke="gray" points="758,-1884.18 758,-1834.18 "/>
<path fill="none" stroke="gray" d="M758,-1834.18C758,-1828.18 764,-1822.18 770,-1822.18"/>
<text text-anchor="middle" x="831" y="-1882.28" font-family="Times Roman,serif" font-size="11.00" fill="gray">Adapter</text>
</g>
<g id="graph12" class="cluster"><title>cluster_\VoteCerto\WebBundle\Organizations\Interfaces</title>
<polyline fill="none" stroke="gray" points="267,-1745.18 393,-1745.18 "/>
<path fill="none" stroke="gray" d="M393,-1745.18C399,-1745.18 405,-1751.18 405,-1757.18"/>
<polyline fill="none" stroke="gray" points="405,-1757.18 405,-1807.18 "/>
<path fill="none" stroke="gray" d="M405,-1807.18C405,-1813.18 399,-1819.18 393,-1819.18"/>
<polyline fill="none" stroke="gray" points="393,-1819.18 267,-1819.18 "/>
<path fill="none" stroke="gray" d="M267,-1819.18C261,-1819.18 255,-1813.18 255,-1807.18"/>
<polyline fill="none" stroke="gray" points="255,-1807.18 255,-1757.18 "/>
<path fill="none" stroke="gray" d="M255,-1757.18C255,-1751.18 261,-1745.18 267,-1745.18"/>
<text text-anchor="middle" x="330" y="-1805.28" font-family="Times Roman,serif" font-size="11.00" fill="gray">Interfaces</text>
</g>
<g id="graph13" class="cluster"><title>cluster_\VoteCerto\WebBundle\Security</title>
<polyline fill="none" stroke="gray" points="762,-876.184 900,-876.184 "/>
<path fill="none" stroke="gray" d="M900,-876.184C906,-876.184 912,-882.184 912,-888.184"/>
<polyline fill="none" stroke="gray" points="912,-888.184 912,-1014.18 "/>
<path fill="none" stroke="gray" d="M912,-1014.18C912,-1020.18 906,-1026.18 900,-1026.18"/>
<polyline fill="none" stroke="gray" points="900,-1026.18 762,-1026.18 "/>
<path fill="none" stroke="gray" d="M762,-1026.18C756,-1026.18 750,-1020.18 750,-1014.18"/>
<polyline fill="none" stroke="gray" points="750,-1014.18 750,-888.184 "/>
<path fill="none" stroke="gray" d="M750,-888.184C750,-882.184 756,-876.184 762,-876.184"/>
<text text-anchor="middle" x="831" y="-1012.28" font-family="Times Roman,serif" font-size="11.00" fill="gray">Security</text>
</g>
<g id="graph14" class="cluster"><title>cluster_\VoteCerto\WebBundle\Security\User</title>
<polyline fill="none" stroke="gray" points="770,-884.184 892,-884.184 "/>
<path fill="none" stroke="gray" d="M892,-884.184C898,-884.184 904,-890.184 904,-896.184"/>
<polyline fill="none" stroke="gray" points="904,-896.184 904,-984.184 "/>
<path fill="none" stroke="gray" d="M904,-984.184C904,-990.184 898,-996.184 892,-996.184"/>
<polyline fill="none" stroke="gray" points="892,-996.184 770,-996.184 "/>
<path fill="none" stroke="gray" d="M770,-996.184C764,-996.184 758,-990.184 758,-984.184"/>
<polyline fill="none" stroke="gray" points="758,-984.184 758,-896.184 "/>
<path fill="none" stroke="gray" d="M758,-896.184C758,-890.184 764,-884.184 770,-884.184"/>
<text text-anchor="middle" x="831" y="-982.284" font-family="Times Roman,serif" font-size="11.00" fill="gray">User</text>
</g>
<g id="graph15" class="cluster"><title>cluster_\VoteCerto\WebBundle\Security\User\Provider</title>
<polyline fill="none" stroke="gray" points="778,-892.184 884,-892.184 "/>
<path fill="none" stroke="gray" d="M884,-892.184C890,-892.184 896,-898.184 896,-904.184"/>
<polyline fill="none" stroke="gray" points="896,-904.184 896,-954.184 "/>
<path fill="none" stroke="gray" d="M896,-954.184C896,-960.184 890,-966.184 884,-966.184"/>
<polyline fill="none" stroke="gray" points="884,-966.184 778,-966.184 "/>
<path fill="none" stroke="gray" d="M778,-966.184C772,-966.184 766,-960.184 766,-954.184"/>
<polyline fill="none" stroke="gray" points="766,-954.184 766,-904.184 "/>
<path fill="none" stroke="gray" d="M766,-904.184C766,-898.184 772,-892.184 778,-892.184"/>
<text text-anchor="middle" x="831" y="-952.284" font-family="Times Roman,serif" font-size="11.00" fill="gray">Provider</text>
</g>
<g id="graph16" class="cluster"><title>cluster_\VoteCerto\WebBundle\Services</title>
<polyline fill="none" stroke="gray" points="760,-686.184 902,-686.184 "/>
<path fill="none" stroke="gray" d="M902,-686.184C908,-686.184 914,-692.184 914,-698.184"/>
<polyline fill="none" stroke="gray" points="914,-698.184 914,-856.184 "/>
<path fill="none" stroke="gray" d="M914,-856.184C914,-862.184 908,-868.184 902,-868.184"/>
<polyline fill="none" stroke="gray" points="902,-868.184 760,-868.184 "/>
<path fill="none" stroke="gray" d="M760,-868.184C754,-868.184 748,-862.184 748,-856.184"/>
<polyline fill="none" stroke="gray" points="748,-856.184 748,-698.184 "/>
<path fill="none" stroke="gray" d="M748,-698.184C748,-692.184 754,-686.184 760,-686.184"/>
<text text-anchor="middle" x="831" y="-854.284" font-family="Times Roman,serif" font-size="11.00" fill="gray">Services</text>
</g>
<g id="graph17" class="cluster"><title>cluster_\VoteCerto\WebBundle\Tests</title>
<polyline fill="none" stroke="gray" points="736,-604.184 926,-604.184 "/>
<path fill="none" stroke="gray" d="M926,-604.184C932,-604.184 938,-610.184 938,-616.184"/>
<polyline fill="none" stroke="gray" points="938,-616.184 938,-666.184 "/>
<path fill="none" stroke="gray" d="M938,-666.184C938,-672.184 932,-678.184 926,-678.184"/>
<polyline fill="none" stroke="gray" points="926,-678.184 736,-678.184 "/>
<path fill="none" stroke="gray" d="M736,-678.184C730,-678.184 724,-672.184 724,-666.184"/>
<polyline fill="none" stroke="gray" points="724,-666.184 724,-616.184 "/>
<path fill="none" stroke="gray" d="M724,-616.184C724,-610.184 730,-604.184 736,-604.184"/>
<text text-anchor="middle" x="831" y="-664.284" font-family="Times Roman,serif" font-size="11.00" fill="gray">Tests</text>
</g>
<!-- \\VoteCerto\\WebBundle\\Command\\UpdateParliamentarianCommand -->
<g id="node5" class="node"><title>\\VoteCerto\\WebBundle\\Command\\UpdateParliamentarianCommand</title>
<polygon fill="none" stroke="black" points="930,-1676.18 732,-1676.18 732,-1640.18 930,-1640.18 930,-1676.18"/>
<text text-anchor="middle" x="831" y="-1655.28" font-family="Times Roman,serif" font-size="11.00">UpdateParliamentarianCommand</text>
</g>
<!-- \\Symfony\\Component\\Console\\Command\\Command -->
<g id="node38" class="node"><title>\\Symfony\\Component\\Console\\Command\\Command</title>
<ellipse fill="none" stroke="black" cx="330" cy="-508.184" rx="261.837" ry="18.3848"/>
<text text-anchor="middle" x="330" y="-504.584" font-family="Times Roman,serif" font-size="14.00" fill="gray">\Symfony\Component\Console\Command\Command</text>
</g>
<!-- \\VoteCerto\\WebBundle\\Command\\UpdateParliamentarianCommand&#45;&gt;\\Symfony\\Component\\Console\\Command\\Command -->
<g id="edge18" class="edge"><title>\\VoteCerto\\WebBundle\\Command\\UpdateParliamentarianCommand&#45;&gt;\\Symfony\\Component\\Console\\Command\\Command</title>
<path fill="none" stroke="black" d="M740.725,-1640.18C734.667,-1636.83 728.998,-1632.87 724,-1628.18 383.187,-1308.8 337.02,-677.322 330.911,-536.476"/>
<polygon fill="none" stroke="black" points="334.408,-536.333 330.511,-526.481 327.414,-536.613 334.408,-536.333"/>
</g>
<!-- \\VoteCerto\\WebBundle\\Controller\\DefaultController -->
<g id="node7" class="node"><title>\\VoteCerto\\WebBundle\\Controller\\DefaultController</title>
<polygon fill="none" stroke="black" points="885,-1594.18 777,-1594.18 777,-1558.18 885,-1558.18 885,-1594.18"/>
<text text-anchor="middle" x="831" y="-1573.28" font-family="Times Roman,serif" font-size="11.00">DefaultController</text>
</g>
<!-- \\Symfony\\Bundle\\FrameworkBundle\\Controller\\Controller -->
<g id="node40" class="node"><title>\\Symfony\\Bundle\\FrameworkBundle\\Controller\\Controller</title>
<ellipse fill="none" stroke="black" cx="330" cy="-454.184" rx="290.121" ry="18.3848"/>
<text text-anchor="middle" x="330" y="-450.584" font-family="Times Roman,serif" font-size="14.00" fill="gray">\Symfony\Bundle\FrameworkBundle\Controller\Controller</text>
</g>
<!-- \\VoteCerto\\WebBundle\\Controller\\DefaultController&#45;&gt;\\Symfony\\Bundle\\FrameworkBundle\\Controller\\Controller -->
<g id="edge20" class="edge"><title>\\VoteCerto\\WebBundle\\Controller\\DefaultController&#45;&gt;\\Symfony\\Bundle\\FrameworkBundle\\Controller\\Controller</title>
<path fill="none" stroke="black" d="M776.907,-1575.3C757.332,-1572.07 736.893,-1564.75 724,-1549.18 572.339,-1366.08 826.28,-651.126 660,-481.184 651.817,-472.821 637.891,-466.435 620.255,-461.608"/>
<polygon fill="none" stroke="black" points="620.638,-458.097 610.089,-459.085 618.951,-464.891 620.638,-458.097"/>
</g>
<!-- \\VoteCerto\\WebBundle\\Controller\\ProfileController -->
<g id="node8" class="node"><title>\\VoteCerto\\WebBundle\\Controller\\ProfileController</title>
<polygon fill="none" stroke="black" points="882,-1540.18 780,-1540.18 780,-1504.18 882,-1504.18 882,-1540.18"/>
<text text-anchor="middle" x="831" y="-1519.28" font-family="Times Roman,serif" font-size="11.00">ProfileController</text>
</g>
<!-- \\VoteCerto\\WebBundle\\Controller\\ProfileController&#45;&gt;\\Symfony\\Bundle\\FrameworkBundle\\Controller\\Controller -->
<g id="edge22" class="edge"><title>\\VoteCerto\\WebBundle\\Controller\\ProfileController&#45;&gt;\\Symfony\\Bundle\\FrameworkBundle\\Controller\\Controller</title>
<path fill="none" stroke="black" d="M779.432,-1521.67C759.118,-1518.66 737.469,-1511.39 724,-1495.18 579.703,-1321.53 818.16,-642.314 660,-481.184 651.803,-472.834 637.868,-466.456 620.227,-461.636"/>
<polygon fill="none" stroke="black" points="620.606,-458.124 610.058,-459.115 618.922,-464.918 620.606,-458.124"/>
</g>
<!-- \\VoteCerto\\WebBundle\\Controller\\SecurityController -->
<g id="node9" class="node"><title>\\VoteCerto\\WebBundle\\Controller\\SecurityController</title>
<polygon fill="none" stroke="black" points="887,-1486.18 775,-1486.18 775,-1450.18 887,-1450.18 887,-1486.18"/>
<text text-anchor="middle" x="831" y="-1465.28" font-family="Times Roman,serif" font-size="11.00">SecurityController</text>
</g>
<!-- \\FOS\\UserBundle\\Controller\\SecurityController -->
<g id="node43" class="node"><title>\\FOS\\UserBundle\\Controller\\SecurityController</title>
<ellipse fill="none" stroke="black" cx="330" cy="-400.184" rx="239.002" ry="18.3848"/>
<text text-anchor="middle" x="330" y="-396.584" font-family="Times Roman,serif" font-size="14.00" fill="gray">\FOS\UserBundle\Controller\SecurityController</text>
</g>
<!-- \\VoteCerto\\WebBundle\\Controller\\SecurityController&#45;&gt;\\FOS\\UserBundle\\Controller\\SecurityController -->
<g id="edge24" class="edge"><title>\\VoteCerto\\WebBundle\\Controller\\SecurityController&#45;&gt;\\FOS\\UserBundle\\Controller\\SecurityController</title>
<path fill="none" stroke="black" d="M774.304,-1465.17C755.498,-1461.2 736.257,-1453.33 724,-1438.18 582.391,-1263.19 817.709,-587.825 660,-427.184 646.045,-412.97 615.459,-404.473 578.269,-399.639"/>
<polygon fill="none" stroke="black" points="578.493,-396.141 568.149,-398.43 577.663,-403.092 578.493,-396.141"/>
</g>
<!-- \\VoteCerto\\WebBundle\\DependencyInjection\\Configuration -->
<g id="node11" class="node"><title>\\VoteCerto\\WebBundle\\DependencyInjection\\Configuration</title>
<polygon fill="none" stroke="black" points="875,-1404.18 787,-1404.18 787,-1368.18 875,-1368.18 875,-1404.18"/>
<text text-anchor="middle" x="831" y="-1383.28" font-family="Times Roman,serif" font-size="11.00">Configuration</text>
</g>
<!-- \\Symfony\\Component\\Config\\Definition\\ConfigurationInterface -->
<g id="node45" class="node"><title>\\Symfony\\Component\\Config\\Definition\\ConfigurationInterface</title>
<ellipse fill="none" stroke="black" cx="330" cy="-346.184" rx="314.162" ry="18.3848"/>
<text text-anchor="middle" x="330" y="-342.584" font-family="Times Roman,serif" font-size="14.00" fill="gray">\Symfony\Component\Config\Definition\ConfigurationInterface</text>
</g>
<!-- \\VoteCerto\\WebBundle\\DependencyInjection\\Configuration&#45;&gt;\\Symfony\\Component\\Config\\Definition\\ConfigurationInterface -->
<g id="edge26" class="edge"><title>\\VoteCerto\\WebBundle\\DependencyInjection\\Configuration&#45;&gt;\\Symfony\\Component\\Config\\Definition\\ConfigurationInterface</title>
<path fill="none" stroke="black" stroke-dasharray="1,5" d="M786.304,-1386.53C764.161,-1384.18 739.015,-1377.22 724,-1359.18 583.521,-1190.43 813.95,-529.745 660,-373.184 653.205,-366.274 642.475,-360.716 628.965,-356.273"/>
<polygon fill="none" stroke="black" points="629.764,-352.86 619.181,-353.373 627.774,-359.571 629.764,-352.86"/>
</g>
<!-- \\VoteCerto\\WebBundle\\DependencyInjection\\WebExtension -->
<g id="node12" class="node"><title>\\VoteCerto\\WebBundle\\DependencyInjection\\WebExtension</title>
<polygon fill="none" stroke="black" points="878,-1350.18 784,-1350.18 784,-1314.18 878,-1314.18 878,-1350.18"/>
<text text-anchor="middle" x="831" y="-1329.28" font-family="Times Roman,serif" font-size="11.00">WebExtension</text>
</g>
<!-- \\Symfony\\Component\\HttpKernel\\DependencyInjection\\Extension -->
<g id="node47" class="node"><title>\\Symfony\\Component\\HttpKernel\\DependencyInjection\\Extension</title>
<ellipse fill="none" stroke="black" cx="330" cy="-292.184" rx="329.012" ry="18.3848"/>
<text text-anchor="middle" x="330" y="-288.584" font-family="Times Roman,serif" font-size="14.00" fill="gray">\Symfony\Component\HttpKernel\DependencyInjection\Extension</text>
</g>
<!-- \\VoteCerto\\WebBundle\\DependencyInjection\\WebExtension&#45;&gt;\\Symfony\\Component\\HttpKernel\\DependencyInjection\\Extension -->
<g id="edge28" class="edge"><title>\\VoteCerto\\WebBundle\\DependencyInjection\\WebExtension&#45;&gt;\\Symfony\\Component\\HttpKernel\\DependencyInjection\\Extension</title>
<path fill="none" stroke="black" d="M783.467,-1330.81C761.988,-1327.56 738.276,-1319.79 724,-1302.18 586.144,-1132.14 813.499,-475.256 660,-319.184 653.878,-312.959 644.561,-307.831 632.895,-303.628"/>
<polygon fill="none" stroke="black" points="633.643,-300.192 623.051,-300.452 631.493,-306.853 633.643,-300.192"/>
</g>
<!-- \\VoteCerto\\WebBundle\\Document\\Comments -->
<g id="node14" class="node"><title>\\VoteCerto\\WebBundle\\Document\\Comments</title>
<polygon fill="none" stroke="black" points="869,-1268.18 793,-1268.18 793,-1232.18 869,-1232.18 869,-1268.18"/>
<text text-anchor="middle" x="831" y="-1247.28" font-family="Times Roman,serif" font-size="11.00">Comments</text>
</g>
<!-- \\VoteCerto\\WebBundle\\Document\\Parliamentarian -->
<g id="node15" class="node"><title>\\VoteCerto\\WebBundle\\Document\\Parliamentarian</title>
<polygon fill="none" stroke="black" points="881,-1214.18 781,-1214.18 781,-1178.18 881,-1178.18 881,-1214.18"/>
<text text-anchor="middle" x="831" y="-1193.28" font-family="Times Roman,serif" font-size="11.00">Parliamentarian</text>
</g>
<!-- \\VoteCerto\\WebBundle\\Document\\User -->
<g id="node16" class="node"><title>\\VoteCerto\\WebBundle\\Document\\User</title>
<polygon fill="none" stroke="black" points="858,-1160.18 804,-1160.18 804,-1124.18 858,-1124.18 858,-1160.18"/>
<text text-anchor="middle" x="831" y="-1139.28" font-family="Times Roman,serif" font-size="11.00">User</text>
</g>
<!-- \\FOS\\UserBundle\\Model\\User -->
<g id="node49" class="node"><title>\\FOS\\UserBundle\\Model\\User</title>
<ellipse fill="none" stroke="black" cx="330" cy="-238.184" rx="152.028" ry="18.3848"/>
<text text-anchor="middle" x="330" y="-234.584" font-family="Times Roman,serif" font-size="14.00" fill="gray">\FOS\UserBundle\Model\User</text>
</g>
<!-- \\VoteCerto\\WebBundle\\Document\\User&#45;&gt;\\FOS\\UserBundle\\Model\\User -->
<g id="edge30" class="edge"><title>\\VoteCerto\\WebBundle\\Document\\User&#45;&gt;\\FOS\\UserBundle\\Model\\User</title>
<path fill="none" stroke="black" d="M803.983,-1142.71C779.092,-1141.59 743.197,-1135.61 724,-1112.18 604.369,-966.177 793.057,-399.071 660,-265.184 634.99,-240.018 557.369,-232.845 483.69,-232.163"/>
<polygon fill="none" stroke="black" points="483.343,-228.661 473.325,-232.108 483.307,-235.661 483.343,-228.661"/>
</g>
<!-- \\VoteCerto\\WebBundle\\Extension\\Twig -->
<g id="node18" class="node"><title>\\VoteCerto\\WebBundle\\Extension\\Twig</title>
<polygon fill="none" stroke="black" points="858,-1078.18 804,-1078.18 804,-1042.18 858,-1042.18 858,-1078.18"/>
<text text-anchor="middle" x="831" y="-1057.28" font-family="Times Roman,serif" font-size="11.00">Twig</text>
</g>
<!-- \\Twig_Extension -->
<g id="node51" class="node"><title>\\Twig_Extension</title>
<ellipse fill="none" stroke="black" cx="330" cy="-184.184" rx="90.0096" ry="18.3848"/>
<text text-anchor="middle" x="330" y="-180.584" font-family="Times Roman,serif" font-size="14.00" fill="gray">\Twig_Extension</text>
</g>
<!-- \\VoteCerto\\WebBundle\\Extension\\Twig&#45;&gt;\\Twig_Extension -->
<g id="edge32" class="edge"><title>\\VoteCerto\\WebBundle\\Extension\\Twig&#45;&gt;\\Twig_Extension</title>
<path fill="none" stroke="black" d="M803.717,-1045.69C778.261,-1030.54 741.636,-1004.24 724,-970.184 646.167,-819.875 779.837,-330.724 660,-211.184 628.242,-179.505 512.554,-176.417 427.076,-178.833"/>
<polygon fill="none" stroke="black" points="426.958,-175.335 417.072,-179.145 427.176,-182.332 426.958,-175.335"/>
</g>
<!-- \\VoteCerto\\WebBundle\\Organizations\\Adapter\\OrganizationAdapter -->
<g id="node21" class="node"><title>\\VoteCerto\\WebBundle\\Organizations\\Adapter\\OrganizationAdapter</title>
<polygon fill="none" stroke="black" points="895,-1866.18 767,-1866.18 767,-1830.18 895,-1830.18 895,-1866.18"/>
<text text-anchor="middle" x="831" y="-1845.28" font-family="Times Roman,serif" font-size="11.00">OrganizationAdapter</text>
</g>
<!-- \\VoteCerto\\WebBundle\\Organizations\\Interfaces\\OrganizationInterface -->
<g id="node23" class="node"><title>\\VoteCerto\\WebBundle\\Organizations\\Interfaces\\OrganizationInterface</title>
<polygon fill="none" stroke="black" points="397,-1789.18 263,-1789.18 263,-1753.18 397,-1753.18 397,-1789.18"/>
<text text-anchor="middle" x="330" y="-1768.28" font-family="Times Roman,serif" font-size="11.00">OrganizationInterface</text>
</g>
<!-- \\VoteCerto\\WebBundle\\Organizations\\CamaraFederal -->
<g id="node24" class="node"><title>\\VoteCerto\\WebBundle\\Organizations\\CamaraFederal</title>
<polygon fill="none" stroke="black" points="881,-1812.18 781,-1812.18 781,-1776.18 881,-1776.18 881,-1812.18"/>
<text text-anchor="middle" x="831" y="-1791.28" font-family="Times Roman,serif" font-size="11.00">CamaraFederal</text>
</g>
<!-- \\VoteCerto\\WebBundle\\Organizations\\CamaraFederal&#45;&gt;\\VoteCerto\\WebBundle\\Organizations\\Interfaces\\OrganizationInterface -->
<g id="edge34" class="edge"><title>\\VoteCerto\\WebBundle\\Organizations\\CamaraFederal&#45;&gt;\\VoteCerto\\WebBundle\\Organizations\\Interfaces\\OrganizationInterface</title>
<path fill="none" stroke="black" stroke-dasharray="1,5" d="M780.668,-1791.87C692.897,-1787.84 511.302,-1779.51 407.414,-1774.74"/>
<polygon fill="none" stroke="black" points="407.45,-1771.24 397.3,-1774.27 407.129,-1778.23 407.45,-1771.24"/>
</g>
<!-- \\VoteCerto\\WebBundle\\Organizations\\MockedOrganization -->
<g id="node25" class="node"><title>\\VoteCerto\\WebBundle\\Organizations\\MockedOrganization</title>
<polygon fill="none" stroke="black" points="895,-1758.18 767,-1758.18 767,-1722.18 895,-1722.18 895,-1758.18"/>
<text text-anchor="middle" x="831" y="-1737.28" font-family="Times Roman,serif" font-size="11.00">MockedOrganization</text>
</g>
<!-- \\VoteCerto\\WebBundle\\Organizations\\MockedOrganization&#45;&gt;\\VoteCerto\\WebBundle\\Organizations\\Interfaces\\OrganizationInterface -->
<g id="edge36" class="edge"><title>\\VoteCerto\\WebBundle\\Organizations\\MockedOrganization&#45;&gt;\\VoteCerto\\WebBundle\\Organizations\\Interfaces\\OrganizationInterface</title>
<path fill="none" stroke="black" stroke-dasharray="1,5" d="M766.784,-1744.16C674.851,-1749.85 505.964,-1760.3 407.299,-1766.4"/>
<polygon fill="none" stroke="black" points="406.859,-1762.92 397.095,-1767.03 407.292,-1769.91 406.859,-1762.92"/>
</g>
<!-- \\VoteCerto\\WebBundle\\Security\\User\\Provider\\FacebookProvider -->
<g id="node29" class="node"><title>\\VoteCerto\\WebBundle\\Security\\User\\Provider\\FacebookProvider</title>
<polygon fill="none" stroke="black" points="887,-936.184 775,-936.184 775,-900.184 887,-900.184 887,-936.184"/>
<text text-anchor="middle" x="831" y="-915.284" font-family="Times Roman,serif" font-size="11.00">FacebookProvider</text>
</g>
<!-- \\Symfony\\Component\\Security\\Core\\User\\UserProviderInterface -->
<g id="node55" class="node"><title>\\Symfony\\Component\\Security\\Core\\User\\UserProviderInterface</title>
<ellipse fill="none" stroke="black" cx="330" cy="-130.184" rx="321.233" ry="18.3848"/>
<text text-anchor="middle" x="330" y="-126.584" font-family="Times Roman,serif" font-size="14.00" fill="gray">\Symfony\Component\Security\Core\User\UserProviderInterface</text>
</g>
<!-- \\VoteCerto\\WebBundle\\Security\\User\\Provider\\FacebookProvider&#45;&gt;\\Symfony\\Component\\Security\\Core\\User\\UserProviderInterface -->
<g id="edge38" class="edge"><title>\\VoteCerto\\WebBundle\\Security\\User\\Provider\\FacebookProvider&#45;&gt;\\Symfony\\Component\\Security\\Core\\User\\UserProviderInterface</title>
<path fill="none" stroke="black" stroke-dasharray="1,5" d="M774.281,-906.304C755.355,-899.476 736.042,-888.804 724,-872.184 630.401,-743.005 773.23,-269.553 660,-157.184 653.351,-150.586 643.048,-145.231 630.127,-140.908"/>
<polygon fill="none" stroke="black" points="630.855,-137.472 620.271,-137.94 628.837,-144.175 630.855,-137.472"/>
</g>
<!-- \\VoteCerto\\WebBundle\\Services\\ParliamentarianManager -->
<g id="node31" class="node"><title>\\VoteCerto\\WebBundle\\Services\\ParliamentarianManager</title>
<polygon fill="none" stroke="black" points="905,-838.184 757,-838.184 757,-802.184 905,-802.184 905,-838.184"/>
<text text-anchor="middle" x="831" y="-817.284" font-family="Times Roman,serif" font-size="11.00">ParliamentarianManager</text>
</g>
<!-- \\VoteCerto\\WebBundle\\Services\\Slugifier -->
<g id="node32" class="node"><title>\\VoteCerto\\WebBundle\\Services\\Slugifier</title>
<polygon fill="none" stroke="black" points="861,-784.184 801,-784.184 801,-748.184 861,-748.184 861,-784.184"/>
<text text-anchor="middle" x="831" y="-763.284" font-family="Times Roman,serif" font-size="11.00">Slugifier</text>
</g>
<!-- \\VoteCerto\\WebBundle\\Services\\WebserviceManager -->
<g id="node33" class="node"><title>\\VoteCerto\\WebBundle\\Services\\WebserviceManager</title>
<polygon fill="none" stroke="black" points="894,-730.184 768,-730.184 768,-694.184 894,-694.184 894,-730.184"/>
<text text-anchor="middle" x="831" y="-709.284" font-family="Times Roman,serif" font-size="11.00">WebserviceManager</text>
</g>
<!-- \\VoteCerto\\WebBundle\\Tests\\DeputiesWebserviceManagerTest -->
<g id="node35" class="node"><title>\\VoteCerto\\WebBundle\\Tests\\DeputiesWebserviceManagerTest</title>
<polygon fill="none" stroke="black" points="929,-648.184 733,-648.184 733,-612.184 929,-612.184 929,-648.184"/>
<text text-anchor="middle" x="831" y="-627.284" font-family="Times Roman,serif" font-size="11.00">DeputiesWebserviceManagerTest</text>
</g>
<!-- \\Symfony\\Bundle\\FrameworkBundle\\Test\\WebTestCase -->
<g id="node57" class="node"><title>\\Symfony\\Bundle\\FrameworkBundle\\Test\\WebTestCase</title>
<ellipse fill="none" stroke="black" cx="330" cy="-76.1842" rx="277.186" ry="18.3848"/>
<text text-anchor="middle" x="330" y="-72.5842" font-family="Times Roman,serif" font-size="14.00" fill="gray">\Symfony\Bundle\FrameworkBundle\Test\WebTestCase</text>
</g>
<!-- \\VoteCerto\\WebBundle\\Tests\\DeputiesWebserviceManagerTest&#45;&gt;\\Symfony\\Bundle\\FrameworkBundle\\Test\\WebTestCase -->
<g id="edge40" class="edge"><title>\\VoteCerto\\WebBundle\\Tests\\DeputiesWebserviceManagerTest&#45;&gt;\\Symfony\\Bundle\\FrameworkBundle\\Test\\WebTestCase</title>
<path fill="none" stroke="black" d="M732.428,-615.661C729.405,-613.45 726.577,-610.967 724,-608.184 570.277,-442.191 823.489,-259.567 660,-103.184 595.001,-41.0107 486.173,-44.7545 411.378,-57.0625"/>
<polygon fill="none" stroke="black" points="410.774,-53.6149 401.516,-58.7669 411.966,-60.5126 410.774,-53.6149"/>
</g>
<!-- \\VoteCerto\\WebBundle\\WebBundle -->
<g id="node36" class="node"><title>\\VoteCerto\\WebBundle\\WebBundle</title>
<polygon fill="none" stroke="black" points="869,-594.184 793,-594.184 793,-558.184 869,-558.184 869,-594.184"/>
<text text-anchor="middle" x="831" y="-573.284" font-family="Times Roman,serif" font-size="11.00">WebBundle</text>
</g>
<!-- \\Symfony\\Component\\HttpKernel\\Bundle\\Bundle -->
<g id="node59" class="node"><title>\\Symfony\\Component\\HttpKernel\\Bundle\\Bundle</title>
<ellipse fill="none" stroke="black" cx="330" cy="-22.1842" rx="246.78" ry="18.3848"/>
<text text-anchor="middle" x="330" y="-18.5842" font-family="Times Roman,serif" font-size="14.00" fill="gray">\Symfony\Component\HttpKernel\Bundle\Bundle</text>
</g>
<!-- \\VoteCerto\\WebBundle\\WebBundle&#45;&gt;\\Symfony\\Component\\HttpKernel\\Bundle\\Bundle -->
<g id="edge42" class="edge"><title>\\VoteCerto\\WebBundle\\WebBundle&#45;&gt;\\Symfony\\Component\\HttpKernel\\Bundle\\Bundle</title>
<path fill="none" stroke="black" d="M827.868,-558.109C812.797,-473.332 744.958,-116.401 660,-49.1842 594.233,2.84872 496.254,4.34552 424.135,-3.9933"/>
<polygon fill="none" stroke="black" points="423.63,-0.528937 414.136,-5.23099 424.49,-7.47592 423.63,-0.528937"/>
</g>
</g>
</svg>
