<?xml version="1.0" encoding="UTF-8" standalone="no"?>
<!DOCTYPE svg PUBLIC "-//W3C//DTD SVG 1.1//EN"
 "http://www.w3.org/Graphics/SVG/1.1/DTD/svg11.dtd">
<!-- Generated by graphviz version 2.26.3 (20100126.1600)
 -->
<!-- Title: G Pages: 1 -->
<svg width="966pt" height="1194pt"
 viewBox="0.00 0.00 966.00 1194.00" xmlns="http://www.w3.org/2000/svg" xmlns:xlink="http://www.w3.org/1999/xlink">
<g id="graph1" class="graph" transform="scale(1 1) rotate(0) translate(4 1190)">
<title>G</title>
<polygon fill="white" stroke="white" points="-4,5 -4,-1190 963,-1190 963,5 -4,5"/>
<g id="graph2" class="cluster"><title>cluster_Global</title>
<polyline fill="none" stroke="gray" points="229,-314 938,-314 "/>
<path fill="none" stroke="gray" d="M938,-314C944,-314 950,-320 950,-326"/>
<polyline fill="none" stroke="gray" points="950,-326 950,-1166 "/>
<path fill="none" stroke="gray" d="M950,-1166C950,-1172 944,-1178 938,-1178"/>
<polyline fill="none" stroke="gray" points="938,-1178 229,-1178 "/>
<path fill="none" stroke="gray" d="M229,-1178C223,-1178 217,-1172 217,-1166"/>
<polyline fill="none" stroke="gray" points="217,-1166 217,-326 "/>
<path fill="none" stroke="gray" d="M217,-326C217,-320 223,-314 229,-314"/>
<text text-anchor="middle" x="583.5" y="-1164.1" font-family="Times Roman,serif" font-size="11.00" fill="gray">Global</text>
</g>
<g id="graph3" class="cluster"><title>cluster_\VoteCerto</title>
<polyline fill="none" stroke="gray" points="237,-322 930,-322 "/>
<path fill="none" stroke="gray" d="M930,-322C936,-322 942,-328 942,-334"/>
<polyline fill="none" stroke="gray" points="942,-334 942,-1136 "/>
<path fill="none" stroke="gray" d="M942,-1136C942,-1142 936,-1148 930,-1148"/>
<polyline fill="none" stroke="gray" points="930,-1148 237,-1148 "/>
<path fill="none" stroke="gray" d="M237,-1148C231,-1148 225,-1142 225,-1136"/>
<polyline fill="none" stroke="gray" points="225,-1136 225,-334 "/>
<path fill="none" stroke="gray" d="M225,-334C225,-328 231,-322 237,-322"/>
<text text-anchor="middle" x="583.5" y="-1134.1" font-family="Times Roman,serif" font-size="11.00" fill="gray">VoteCerto</text>
</g>
<g id="graph4" class="cluster"><title>cluster_\VoteCerto\WebBundle</title>
<polyline fill="none" stroke="gray" points="245,-330 922,-330 "/>
<path fill="none" stroke="gray" d="M922,-330C928,-330 934,-336 934,-342"/>
<polyline fill="none" stroke="gray" points="934,-342 934,-1106 "/>
<path fill="none" stroke="gray" d="M934,-1106C934,-1112 928,-1118 922,-1118"/>
<polyline fill="none" stroke="gray" points="922,-1118 245,-1118 "/>
<path fill="none" stroke="gray" d="M245,-1118C239,-1118 233,-1112 233,-1106"/>
<polyline fill="none" stroke="gray" points="233,-1106 233,-342 "/>
<path fill="none" stroke="gray" d="M233,-342C233,-336 239,-330 245,-330"/>
<text text-anchor="middle" x="583.5" y="-1104.1" font-family="Times Roman,serif" font-size="11.00" fill="gray">WebBundle</text>
</g>
<g id="graph5" class="cluster"><title>cluster_\VoteCerto\WebBundle\Services</title>
<polyline fill="none" stroke="gray" points="759,-1014 879,-1014 "/>
<path fill="none" stroke="gray" d="M879,-1014C885,-1014 891,-1020 891,-1026"/>
<polyline fill="none" stroke="gray" points="891,-1026 891,-1076 "/>
<path fill="none" stroke="gray" d="M891,-1076C891,-1082 885,-1088 879,-1088"/>
<polyline fill="none" stroke="gray" points="879,-1088 759,-1088 "/>
<path fill="none" stroke="gray" d="M759,-1088C753,-1088 747,-1082 747,-1076"/>
<polyline fill="none" stroke="gray" points="747,-1076 747,-1026 "/>
<path fill="none" stroke="gray" d="M747,-1026C747,-1020 753,-1014 759,-1014"/>
<text text-anchor="middle" x="819" y="-1074.1" font-family="Times Roman,serif" font-size="11.00" fill="gray">Services</text>
</g>
<g id="graph6" class="cluster"><title>cluster_\VoteCerto\WebBundle\Organizations</title>
<polyline fill="none" stroke="gray" points="253,-848 888,-848 "/>
<path fill="none" stroke="gray" d="M888,-848C894,-848 900,-854 900,-860"/>
<polyline fill="none" stroke="gray" points="900,-860 900,-994 "/>
<path fill="none" stroke="gray" d="M900,-994C900,-1000 894,-1006 888,-1006"/>
<polyline fill="none" stroke="gray" points="888,-1006 253,-1006 "/>
<path fill="none" stroke="gray" d="M253,-1006C247,-1006 241,-1000 241,-994"/>
<polyline fill="none" stroke="gray" points="241,-994 241,-860 "/>
<path fill="none" stroke="gray" d="M241,-860C241,-854 247,-848 253,-848"/>
<text text-anchor="middle" x="570.5" y="-992.1" font-family="Times Roman,serif" font-size="11.00" fill="gray">Organizations</text>
</g>
<g id="graph7" class="cluster"><title>cluster_\VoteCerto\WebBundle\Organizations\Interfaces</title>
<polyline fill="none" stroke="gray" points="261,-856 387,-856 "/>
<path fill="none" stroke="gray" d="M387,-856C393,-856 399,-862 399,-868"/>
<polyline fill="none" stroke="gray" points="399,-868 399,-918 "/>
<path fill="none" stroke="gray" d="M399,-918C399,-924 393,-930 387,-930"/>
<polyline fill="none" stroke="gray" points="387,-930 261,-930 "/>
<path fill="none" stroke="gray" d="M261,-930C255,-930 249,-924 249,-918"/>
<polyline fill="none" stroke="gray" points="249,-918 249,-868 "/>
<path fill="none" stroke="gray" d="M249,-868C249,-862 255,-856 261,-856"/>
<text text-anchor="middle" x="324" y="-916.1" font-family="Times Roman,serif" font-size="11.00" fill="gray">Interfaces</text>
</g>
<g id="graph8" class="cluster"><title>cluster_\VoteCerto\WebBundle\Organizations\Adapter</title>
<polyline fill="none" stroke="gray" points="758,-902 880,-902 "/>
<path fill="none" stroke="gray" d="M880,-902C886,-902 892,-908 892,-914"/>
<polyline fill="none" stroke="gray" points="892,-914 892,-964 "/>
<path fill="none" stroke="gray" d="M892,-964C892,-970 886,-976 880,-976"/>
<polyline fill="none" stroke="gray" points="880,-976 758,-976 "/>
<path fill="none" stroke="gray" d="M758,-976C752,-976 746,-970 746,-964"/>
<polyline fill="none" stroke="gray" points="746,-964 746,-914 "/>
<path fill="none" stroke="gray" d="M746,-914C746,-908 752,-902 758,-902"/>
<text text-anchor="middle" x="819" y="-962.1" font-family="Times Roman,serif" font-size="11.00" fill="gray">Adapter</text>
</g>
<g id="graph9" class="cluster"><title>cluster_\VoteCerto\WebBundle\Controller</title>
<polyline fill="none" stroke="gray" points="769,-766 869,-766 "/>
<path fill="none" stroke="gray" d="M869,-766C875,-766 881,-772 881,-778"/>
<polyline fill="none" stroke="gray" points="881,-778 881,-828 "/>
<path fill="none" stroke="gray" d="M881,-828C881,-834 875,-840 869,-840"/>
<polyline fill="none" stroke="gray" points="869,-840 769,-840 "/>
<path fill="none" stroke="gray" d="M769,-840C763,-840 757,-834 757,-828"/>
<polyline fill="none" stroke="gray" points="757,-828 757,-778 "/>
<path fill="none" stroke="gray" d="M757,-778C757,-772 763,-766 769,-766"/>
<text text-anchor="middle" x="819" y="-826.1" font-family="Times Roman,serif" font-size="11.00" fill="gray">Controller</text>
</g>
<g id="graph10" class="cluster"><title>cluster_\VoteCerto\WebBundle\Tests</title>
<polyline fill="none" stroke="gray" points="724,-684 914,-684 "/>
<path fill="none" stroke="gray" d="M914,-684C920,-684 926,-690 926,-696"/>
<polyline fill="none" stroke="gray" points="926,-696 926,-746 "/>
<path fill="none" stroke="gray" d="M926,-746C926,-752 920,-758 914,-758"/>
<polyline fill="none" stroke="gray" points="914,-758 724,-758 "/>
<path fill="none" stroke="gray" d="M724,-758C718,-758 712,-752 712,-746"/>
<polyline fill="none" stroke="gray" points="712,-746 712,-696 "/>
<path fill="none" stroke="gray" d="M712,-696C712,-690 718,-684 724,-684"/>
<text text-anchor="middle" x="819" y="-744.1" font-family="Times Roman,serif" font-size="11.00" fill="gray">Tests</text>
</g>
<g id="graph11" class="cluster"><title>cluster_\VoteCerto\WebBundle\Command</title>
<polyline fill="none" stroke="gray" points="742,-602 896,-602 "/>
<path fill="none" stroke="gray" d="M896,-602C902,-602 908,-608 908,-614"/>
<polyline fill="none" stroke="gray" points="908,-614 908,-664 "/>
<path fill="none" stroke="gray" d="M908,-664C908,-670 902,-676 896,-676"/>
<polyline fill="none" stroke="gray" points="896,-676 742,-676 "/>
<path fill="none" stroke="gray" d="M742,-676C736,-676 730,-670 730,-664"/>
<polyline fill="none" stroke="gray" points="730,-664 730,-614 "/>
<path fill="none" stroke="gray" d="M730,-614C730,-608 736,-602 742,-602"/>
<text text-anchor="middle" x="819" y="-662.1" font-family="Times Roman,serif" font-size="11.00" fill="gray">Command</text>
</g>
<g id="graph12" class="cluster"><title>cluster_\VoteCerto\WebBundle\DependencyInjection</title>
<polyline fill="none" stroke="gray" points="767,-466 871,-466 "/>
<path fill="none" stroke="gray" d="M871,-466C877,-466 883,-472 883,-478"/>
<polyline fill="none" stroke="gray" points="883,-478 883,-582 "/>
<path fill="none" stroke="gray" d="M883,-582C883,-588 877,-594 871,-594"/>
<polyline fill="none" stroke="gray" points="871,-594 767,-594 "/>
<path fill="none" stroke="gray" d="M767,-594C761,-594 755,-588 755,-582"/>
<polyline fill="none" stroke="gray" points="755,-582 755,-478 "/>
<path fill="none" stroke="gray" d="M755,-478C755,-472 761,-466 767,-466"/>
<text text-anchor="middle" x="819" y="-580.1" font-family="Times Roman,serif" font-size="11.00" fill="gray">DependencyInjection</text>
</g>
<g id="graph13" class="cluster"><title>cluster_\VoteCerto\WebBundle\Document</title>
<polyline fill="none" stroke="gray" points="794,-384 844,-384 "/>
<path fill="none" stroke="gray" d="M844,-384C850,-384 856,-390 856,-396"/>
<polyline fill="none" stroke="gray" points="856,-396 856,-446 "/>
<path fill="none" stroke="gray" d="M856,-446C856,-452 850,-458 844,-458"/>
<polyline fill="none" stroke="gray" points="844,-458 794,-458 "/>
<path fill="none" stroke="gray" d="M794,-458C788,-458 782,-452 782,-446"/>
<polyline fill="none" stroke="gray" points="782,-446 782,-396 "/>
<path fill="none" stroke="gray" d="M782,-396C782,-390 788,-384 794,-384"/>
<text text-anchor="middle" x="819" y="-444.1" font-family="Times Roman,serif" font-size="11.00" fill="gray">Document</text>
</g>
<!-- \\VoteCerto\\WebBundle\\Services\\WebserviceManager -->
<g id="node5" class="node"><title>\\VoteCerto\\WebBundle\\Services\\WebserviceManager</title>
<polygon fill="none" stroke="black" points="882,-1058 756,-1058 756,-1022 882,-1022 882,-1058"/>
<text text-anchor="middle" x="819" y="-1037.1" font-family="Times Roman,serif" font-size="11.00">WebserviceManager</text>
</g>
<!-- \\VoteCerto\\WebBundle\\Organizations\\Interfaces\\OrganizationInterface -->
<g id="node8" class="node"><title>\\VoteCerto\\WebBundle\\Organizations\\Interfaces\\OrganizationInterface</title>
<polygon fill="none" stroke="black" points="391,-900 257,-900 257,-864 391,-864 391,-900"/>
<text text-anchor="middle" x="324" y="-879.1" font-family="Times Roman,serif" font-size="11.00">OrganizationInterface</text>
</g>
<!-- \\VoteCerto\\WebBundle\\Organizations\\Adapter\\OrganizationAdapter -->
<g id="node10" class="node"><title>\\VoteCerto\\WebBundle\\Organizations\\Adapter\\OrganizationAdapter</title>
<polygon fill="none" stroke="black" points="883,-946 755,-946 755,-910 883,-910 883,-946"/>
<text text-anchor="middle" x="819" y="-925.1" font-family="Times Roman,serif" font-size="11.00">OrganizationAdapter</text>
</g>
<!-- \\VoteCerto\\WebBundle\\Organizations\\CamaraFederal -->
<g id="node11" class="node"><title>\\VoteCerto\\WebBundle\\Organizations\\CamaraFederal</title>
<polygon fill="none" stroke="black" points="869,-892 769,-892 769,-856 869,-856 869,-892"/>
<text text-anchor="middle" x="819" y="-871.1" font-family="Times Roman,serif" font-size="11.00">CamaraFederal</text>
</g>
<!-- \\VoteCerto\\WebBundle\\Organizations\\CamaraFederal&#45;&gt;\\VoteCerto\\WebBundle\\Organizations\\Interfaces\\OrganizationInterface -->
<g id="edge16" class="edge"><title>\\VoteCerto\\WebBundle\\Organizations\\CamaraFederal&#45;&gt;\\VoteCerto\\WebBundle\\Organizations\\Interfaces\\OrganizationInterface</title>
<path fill="none" stroke="black" stroke-dasharray="1,5" d="M768.813,-874.811C682.198,-876.211 504.094,-879.089 401.473,-880.748"/>
<polygon fill="none" stroke="black" points="401.115,-877.253 391.173,-880.914 401.229,-884.252 401.115,-877.253"/>
</g>
<!-- \\VoteCerto\\WebBundle\\Controller\\DefaultController -->
<g id="node13" class="node"><title>\\VoteCerto\\WebBundle\\Controller\\DefaultController</title>
<polygon fill="none" stroke="black" points="873,-810 765,-810 765,-774 873,-774 873,-810"/>
<text text-anchor="middle" x="819" y="-789.1" font-family="Times Roman,serif" font-size="11.00">DefaultController</text>
</g>
<!-- \\Symfony\\Bundle\\FrameworkBundle\\Controller\\Controller -->
<g id="node28" class="node"><title>\\Symfony\\Bundle\\FrameworkBundle\\Controller\\Controller</title>
<ellipse fill="none" stroke="black" cx="324" cy="-288" rx="285.096" ry="18"/>
<text text-anchor="middle" x="324" y="-283.9" font-family="Times Roman,serif" font-size="14.00" fill="gray">\Symfony\Bundle\FrameworkBundle\Controller\Controller</text>
</g>
<!-- \\VoteCerto\\WebBundle\\Controller\\DefaultController&#45;&gt;\\Symfony\\Bundle\\FrameworkBundle\\Controller\\Controller -->
<g id="edge18" class="edge"><title>\\VoteCerto\\WebBundle\\Controller\\DefaultController&#45;&gt;\\Symfony\\Bundle\\FrameworkBundle\\Controller\\Controller</title>
<path fill="none" stroke="black" d="M764.845,-783.579C747.016,-779.099 727.744,-772.294 712,-762 524.261,-639.242 382.492,-396.993 338.389,-315.492"/>
<polygon fill="none" stroke="black" points="341.308,-313.529 333.498,-306.369 335.138,-316.836 341.308,-313.529"/>
</g>
<!-- \\VoteCerto\\WebBundle\\Tests\\DeputiesWebserviceManagerTest -->
<g id="node15" class="node"><title>\\VoteCerto\\WebBundle\\Tests\\DeputiesWebserviceManagerTest</title>
<polygon fill="none" stroke="black" points="917,-728 721,-728 721,-692 917,-692 917,-728"/>
<text text-anchor="middle" x="819" y="-707.1" font-family="Times Roman,serif" font-size="11.00">DeputiesWebserviceManagerTest</text>
</g>
<!-- \\Symfony\\Bundle\\FrameworkBundle\\Test\\WebTestCase -->
<g id="node30" class="node"><title>\\Symfony\\Bundle\\FrameworkBundle\\Test\\WebTestCase</title>
<ellipse fill="none" stroke="black" cx="324" cy="-234" rx="271.894" ry="18"/>
<text text-anchor="middle" x="324" y="-229.9" font-family="Times Roman,serif" font-size="14.00" fill="gray">\Symfony\Bundle\FrameworkBundle\Test\WebTestCase</text>
</g>
<!-- \\VoteCerto\\WebBundle\\Tests\\DeputiesWebserviceManagerTest&#45;&gt;\\Symfony\\Bundle\\FrameworkBundle\\Test\\WebTestCase -->
<g id="edge20" class="edge"><title>\\VoteCerto\\WebBundle\\Tests\\DeputiesWebserviceManagerTest&#45;&gt;\\Symfony\\Bundle\\FrameworkBundle\\Test\\WebTestCase</title>
<path fill="none" stroke="black" d="M725.996,-691.908C720.832,-688.559 716.092,-684.623 712,-680 587.147,-538.935 785.685,-389.571 648,-261 584.761,-201.947 481.086,-203.934 408.074,-215.034"/>
<polygon fill="none" stroke="black" points="407.301,-211.613 397.983,-216.655 408.412,-218.524 407.301,-211.613"/>
</g>
<!-- \\VoteCerto\\WebBundle\\Command\\UpdateDeputiesCommand -->
<g id="node17" class="node"><title>\\VoteCerto\\WebBundle\\Command\\UpdateDeputiesCommand</title>
<polygon fill="none" stroke="black" points="899,-646 739,-646 739,-610 899,-610 899,-646"/>
<text text-anchor="middle" x="819" y="-625.1" font-family="Times Roman,serif" font-size="11.00">UpdateDeputiesCommand</text>
</g>
<!-- \\Symfony\\Component\\Console\\Command\\Command -->
<g id="node32" class="node"><title>\\Symfony\\Component\\Console\\Command\\Command</title>
<ellipse fill="none" stroke="black" cx="324" cy="-180" rx="257.801" ry="18"/>
<text text-anchor="middle" x="324" y="-175.9" font-family="Times Roman,serif" font-size="14.00" fill="gray">\Symfony\Component\Console\Command\Command</text>
</g>
<!-- \\VoteCerto\\WebBundle\\Command\\UpdateDeputiesCommand&#45;&gt;\\Symfony\\Component\\Console\\Command\\Command -->
<g id="edge22" class="edge"><title>\\VoteCerto\\WebBundle\\Command\\UpdateDeputiesCommand&#45;&gt;\\Symfony\\Component\\Console\\Command\\Command</title>
<path fill="none" stroke="black" d="M738.31,-616.422C728.376,-612.017 719.204,-606.052 712,-598 594.591,-466.764 777.341,-326.494 648,-207 584.546,-148.376 481.156,-150.199 408.264,-161.146"/>
<polygon fill="none" stroke="black" points="407.515,-157.721 398.188,-162.746 408.613,-164.634 407.515,-157.721"/>
</g>
<!-- \\VoteCerto\\WebBundle\\DependencyInjection\\Configuration -->
<g id="node19" class="node"><title>\\VoteCerto\\WebBundle\\DependencyInjection\\Configuration</title>
<polygon fill="none" stroke="black" points="863,-564 775,-564 775,-528 863,-528 863,-564"/>
<text text-anchor="middle" x="819" y="-543.1" font-family="Times Roman,serif" font-size="11.00">Configuration</text>
</g>
<!-- \\Symfony\\Component\\Config\\Definition\\ConfigurationInterface -->
<g id="node34" class="node"><title>\\Symfony\\Component\\Config\\Definition\\ConfigurationInterface</title>
<ellipse fill="none" stroke="black" cx="324" cy="-126" rx="309.223" ry="18"/>
<text text-anchor="middle" x="324" y="-121.9" font-family="Times Roman,serif" font-size="14.00" fill="gray">\Symfony\Component\Config\Definition\ConfigurationInterface</text>
</g>
<!-- \\VoteCerto\\WebBundle\\DependencyInjection\\Configuration&#45;&gt;\\Symfony\\Component\\Config\\Definition\\ConfigurationInterface -->
<g id="edge24" class="edge"><title>\\VoteCerto\\WebBundle\\DependencyInjection\\Configuration&#45;&gt;\\Symfony\\Component\\Config\\Definition\\ConfigurationInterface</title>
<path fill="none" stroke="black" stroke-dasharray="1,5" d="M774.276,-545.566C752.541,-542.949 727.774,-535.988 712,-519 599.635,-397.989 769.901,-264.399 648,-153 584.924,-95.3586 483.153,-96.446 410.505,-106.962"/>
<polygon fill="none" stroke="black" points="409.808,-103.528 400.454,-108.503 410.869,-110.447 409.808,-103.528"/>
</g>
<!-- \\VoteCerto\\WebBundle\\DependencyInjection\\WebExtension -->
<g id="node20" class="node"><title>\\VoteCerto\\WebBundle\\DependencyInjection\\WebExtension</title>
<polygon fill="none" stroke="black" points="866,-510 772,-510 772,-474 866,-474 866,-510"/>
<text text-anchor="middle" x="819" y="-489.1" font-family="Times Roman,serif" font-size="11.00">WebExtension</text>
</g>
<!-- \\Symfony\\Component\\HttpKernel\\DependencyInjection\\Extension -->
<g id="node36" class="node"><title>\\Symfony\\Component\\HttpKernel\\DependencyInjection\\Extension</title>
<ellipse fill="none" stroke="black" cx="324" cy="-72" rx="323.815" ry="18"/>
<text text-anchor="middle" x="324" y="-67.9" font-family="Times Roman,serif" font-size="14.00" fill="gray">\Symfony\Component\HttpKernel\DependencyInjection\Extension</text>
</g>
<!-- \\VoteCerto\\WebBundle\\DependencyInjection\\WebExtension&#45;&gt;\\Symfony\\Component\\HttpKernel\\DependencyInjection\\Extension -->
<g id="edge26" class="edge"><title>\\VoteCerto\\WebBundle\\DependencyInjection\\WebExtension&#45;&gt;\\Symfony\\Component\\HttpKernel\\DependencyInjection\\Extension</title>
<path fill="none" stroke="black" d="M771.478,-489.779C750.402,-486.302 727.024,-478.587 712,-462 602.025,-340.58 769.009,-209.428 648,-99 584.983,-41.4936 483.441,-42.4789 410.829,-52.9343"/>
<polygon fill="none" stroke="black" points="410.139,-49.4989 400.782,-54.4673 411.195,-56.4188 410.139,-49.4989"/>
</g>
<!-- \\VoteCerto\\WebBundle\\Document\\Deputy -->
<g id="node22" class="node"><title>\\VoteCerto\\WebBundle\\Document\\Deputy</title>
<polygon fill="none" stroke="black" points="847,-428 791,-428 791,-392 847,-392 847,-428"/>
<text text-anchor="middle" x="819" y="-407.1" font-family="Times Roman,serif" font-size="11.00">Deputy</text>
</g>
<!-- \\VoteCerto\\WebBundle\\WebBundle -->
<g id="node23" class="node"><title>\\VoteCerto\\WebBundle\\WebBundle</title>
<polygon fill="none" stroke="black" points="857,-374 781,-374 781,-338 857,-338 857,-374"/>
<text text-anchor="middle" x="819" y="-353.1" font-family="Times Roman,serif" font-size="11.00">WebBundle</text>
</g>
<!-- \\Symfony\\Component\\HttpKernel\\Bundle\\Bundle -->
<g id="node25" class="node"><title>\\Symfony\\Component\\HttpKernel\\Bundle\\Bundle</title>
<ellipse fill="none" stroke="black" cx="324" cy="-18" rx="242.014" ry="18"/>
<text text-anchor="middle" x="324" y="-13.9" font-family="Times Roman,serif" font-size="14.00" fill="gray">\Symfony\Component\HttpKernel\Bundle\Bundle</text>
</g>
<!-- \\VoteCerto\\WebBundle\\WebBundle&#45;&gt;\\Symfony\\Component\\HttpKernel\\Bundle\\Bundle -->
<g id="edge14" class="edge"><title>\\VoteCerto\\WebBundle\\WebBundle&#45;&gt;\\Symfony\\Component\\HttpKernel\\Bundle\\Bundle</title>
<path fill="none" stroke="black" d="M815.293,-337.898C802.938,-282.724 757.578,-116.106 648,-45 589.796,-7.23094 512.785,0.492124 448.448,-1.68456"/>
<polygon fill="none" stroke="black" points="448.079,1.80309 438.236,-2.11582 448.375,-5.19068 448.079,1.80309"/>
</g>
</g>
</svg>
